<svg width="40" height="40" viewBox="0 0 40 40" fill="none" xmlns="http://www.w3.org/2000/svg">
<path d="M24.6576 7.41538C24.6576 7.41538 28.6108 2.44082 27.4741 1.0137C27.0866 0.527371 26.7563 1.18784 25.9551 1.18784C25.0137 1.18784 25.0137 0.590652 24.0722 0.590652C23.1308 0.590652 23.1308 1.18784 22.1895 1.18784C21.2483 1.18784 21.2483 0.590652 20.307 0.590652C19.3658 0.590652 19.3658 1.18784 18.4245 1.18784C17.6223 1.18784 17.2933 0.518777 16.9033 1.00534C15.766 2.42457 19.6614 7.4153 19.6614 7.4153C2.45736 18.3808 8.00451 33.2935 18.1621 33.2935H26.2178C36.406 33.2935 41.9189 18.4172 24.6576 7.41538Z" fill="#EABC6B"/>
<path d="M24.6576 7.41538C24.6576 7.41538 28.6108 2.44082 27.4741 1.0137C27.0866 0.527371 26.7563 1.18784 25.9551 1.18784C25.0137 1.18784 25.0137 0.590652 24.0722 0.590652C23.1308 0.590652 23.1308 1.18784 22.1895 1.18784C22.1432 1.18784 22.1008 1.18534 22.0588 1.18253C21.6806 2.75442 19.9762 5.20334 19.0008 6.51451C19.385 7.061 19.6614 7.4153 19.6614 7.4153C19.4319 7.56155 19.2074 7.70866 18.9859 7.85632C35.4233 18.8104 29.9233 33.2934 19.8705 33.2934H26.2178C36.406 33.2935 41.9189 18.4172 24.6576 7.41538Z" fill="#E8AE4D"/>
<path d="M25.3927 9.18468C23.0956 9.7471 20.8262 9.74718 18.5287 9.18468C17.729 8.9889 17.2758 8.11709 17.5635 7.32467C17.5667 7.31584 17.57 7.30693 17.5732 7.29811C17.8144 6.63373 18.4987 6.26091 19.1694 6.42412C21.0503 6.88201 22.8705 6.88209 24.7521 6.42412C25.4227 6.26083 26.1069 6.63373 26.3483 7.29811C26.3515 7.30693 26.3547 7.31584 26.3579 7.32467C26.6456 8.11717 26.1923 8.9889 25.3927 9.18468Z" fill="#FFE07D"/>
<path d="M3.79416 35.852L12.5423 39.0091C13.2853 39.2772 14.0717 39.4145 14.8645 39.4145H23.8801C25.1419 39.4145 26.3775 39.0668 27.4433 38.4121L38.7318 31.4768C39.4766 30.8357 39.6146 29.7581 39.0543 28.9597C38.4412 28.0862 37.427 27.9343 36.3111 28.446L25.3207 33.1378L25.3336 31.4089C25.1881 29.99 24.0612 28.8511 22.6049 28.6513L15.9121 27.9042C14.3682 27.6924 13.5966 27.1907 12.2507 26.4274C10.4132 25.3852 8.32263 24.8359 6.19381 24.8359H3.79416V35.852Z" fill="#FFDDCE"/>
<path d="M3.79416 35.852L12.5423 39.0091C13.2853 39.2772 14.0717 39.4145 14.8645 39.4145H23.8801C25.1419 39.4145 26.3775 39.0668 27.4433 38.4121L38.7318 31.4768C39.4766 30.8357 39.6146 29.7581 39.0543 28.9597C38.4412 28.0862 37.427 27.9343 36.3111 28.446L25.3207 33.1378L25.3336 31.4089C25.1881 29.99 24.0612 28.8511 22.6049 28.6513L15.9121 27.9042C14.3682 27.6924 13.5966 27.1907 12.2507 26.4274C10.4132 25.3852 8.32263 24.8359 6.19381 24.8359H3.79416V35.852Z" fill="#FFDDCE"/>
<path d="M39.0553 28.9598C38.4422 28.0863 37.4281 27.9344 36.3121 28.446L33.2891 29.7366C33.4355 29.9613 33.552 30.1406 33.552 30.1406C34.1122 30.9389 33.9742 32.0165 33.2295 32.6577L26.6519 36.6987C25.7856 37.0833 24.841 37.285 23.8812 37.285H14.8655C14.0727 37.285 13.2863 37.1477 12.5433 36.8796L3.79517 33.7226V35.8521L12.5433 39.0092C13.2864 39.2773 14.0727 39.4145 14.8655 39.4145H22.2314H23.8812C25.1429 39.4145 26.3785 39.0669 27.4443 38.4122L38.7328 31.477C39.4775 30.8357 39.6156 29.7582 39.0553 28.9598Z" fill="#FFCBBE"/>
<path d="M24.5131 29.6281L24.5128 29.6698L24.5411 29.6577C24.532 29.6476 24.5224 29.6379 24.5131 29.6281Z" fill="#F5DBCC"/>
<path d="M5.67659 37.5415C5.67659 38.1569 5.16201 38.6558 4.52728 38.6558H1.7535C1.11878 38.6558 0.604202 38.1569 0.604202 37.5415V23.8974C0.604202 23.282 1.11878 22.7831 1.7535 22.7831H4.52728C5.16201 22.7831 5.67659 23.282 5.67659 23.8974V37.5415Z" fill="#407093"/>
<path d="M39.5539 28.6302C38.7843 27.5337 37.4789 27.2659 36.0607 27.913L35.309 28.2338C36.4942 25.7846 36.6412 23.0544 36.0512 20.4754C35.3736 17.5135 33.737 14.6441 31.1868 11.9469C30.9614 11.7084 30.5792 11.6923 30.3331 11.911C30.0871 12.1296 30.0705 12.5002 30.296 12.7388C32.701 15.2822 34.2404 17.9706 34.8715 20.7291C35.5362 23.6348 35.1495 26.6314 33.4532 29.026L25.9318 32.2369L25.938 31.4133C25.9381 31.3925 25.9372 31.3717 25.935 31.351C25.7613 29.6583 24.4268 28.3096 22.6896 28.0713C22.6844 28.0706 22.6793 28.0699 22.674 28.0694L15.9891 27.3231C13.4185 26.9684 12.7565 25.4748 9.27516 24.6232C9.03463 22.6443 9.35525 20.5373 10.234 18.425C11.5576 15.2439 14.1468 12.1533 17.7363 9.46318C19.0742 10.3829 25.0429 10.4973 26.3786 9.31092C27.0629 9.81475 27.716 10.334 28.3243 10.8595C28.4395 10.9591 28.5831 11.008 28.7261 11.008C28.8924 11.008 29.0581 10.9418 29.1774 10.8119C29.3994 10.5703 29.3773 10.2 29.1282 9.98475C28.4613 9.40873 27.744 8.84037 26.9916 8.29107C27.1679 7.56622 26.9212 6.71786 26.2701 6.21285C28.162 3.43065 28.7123 1.60962 27.9522 0.655556C27.4301 0.000161828 26.7807 0.307742 26.5033 0.439149C26.0332 0.66165 25.7769 0.673369 25.3443 0.398992C24.5191 -0.124526 23.6518 -0.141401 22.8 0.398992C22.3619 0.676884 22.017 0.676884 21.5791 0.398992C20.7538 -0.124526 19.8868 -0.141401 19.0348 0.398992C18.5973 0.67665 18.34 0.659463 17.8773 0.436492C17.6003 0.302976 16.9515 -0.00968201 16.4262 0.645791C15.6831 1.57298 16.1802 3.33659 17.9445 6.02418C17.8365 6.08082 17.7335 6.14731 17.6373 6.22324C16.9357 5.5048 15.786 4.7555 14.1235 4.9355C12.7446 5.08511 11.7277 4.64331 11.1174 4.24644C10.8402 4.06644 10.4649 4.13815 10.2791 4.40675C10.0933 4.6755 10.1673 5.03941 10.4444 5.21957C11.2224 5.72527 12.5154 6.28824 14.2576 6.09988C15.542 5.9602 16.4136 6.59661 16.9561 7.24427C16.9487 7.26927 16.9419 7.29442 16.9355 7.31958C16.4727 7.32661 15.7811 7.36848 15.0195 7.52208C13.1878 7.89153 11.8281 8.73552 11.0873 9.96303C10.9188 10.2423 11.0157 10.6012 11.3037 10.7646C11.5917 10.928 11.9618 10.834 12.1303 10.5548C13.2322 8.72904 15.9217 8.50576 16.9899 8.49177C16.9945 8.50466 16.9999 8.5174 17.0047 8.53021C13.1927 11.3812 10.5387 14.5607 9.11343 17.9865C8.21256 20.1519 7.85269 22.3213 8.03536 24.383C7.45592 24.2998 6.86978 24.2552 6.28083 24.2513V23.897C6.28083 22.9596 5.49422 22.197 4.52734 22.197H1.75349C0.786615 22.197 0 22.9597 0 23.897V37.5412C0 38.4787 0.786615 39.2412 1.75349 39.2412H4.52726C5.49413 39.2412 6.28075 38.4786 6.28075 37.5412V37.3743L12.3315 39.5578C13.1446 39.8512 13.9969 40 14.8645 40H23.8801C25.2585 40 26.6025 39.6219 27.7667 38.9066C39.7939 31.5144 39.0635 31.9743 39.133 31.9146C40.1018 31.0809 40.2828 29.6688 39.5539 28.6302ZM25.2447 8.6167C23.035 9.15764 20.8866 9.15764 18.6765 8.6167C17.7282 8.38427 18.0029 6.74442 19.0221 6.99223C20.9994 7.47349 22.9217 7.47349 24.8991 6.99223C25.9005 6.74848 26.2082 8.3806 25.2447 8.6167ZM17.3254 1.47908C17.3302 1.48134 17.3349 1.48369 17.3394 1.48587C18.1572 1.87994 18.8738 1.90134 19.6965 1.37954C20.7259 0.726182 20.8377 1.77377 22.1894 1.77377C22.8402 1.77377 23.1993 1.54595 23.4615 1.37954C23.8996 1.10157 24.2447 1.10173 24.6827 1.37954C25.509 1.90377 26.2082 1.87791 27.0498 1.48439C27.1741 1.91892 26.8928 3.21432 25.101 5.80074C24.2112 5.78605 22.92 6.63332 19.2648 5.84465C17.4769 3.22479 17.2004 1.91681 17.3254 1.47908ZM38.3635 31.0097L27.1199 37.9173C26.1495 38.5135 25.0292 38.8287 23.8802 38.8287H14.8645C14.1413 38.8287 13.4309 38.7047 12.7531 38.4601L6.28075 36.1244V29.8153C6.28075 29.4917 6.01025 29.2295 5.67657 29.2295C5.34289 29.2295 5.07238 29.4917 5.07238 29.8153V37.5415C5.07238 37.8329 4.82782 38.0699 4.52734 38.0699H1.75349C1.45292 38.0699 1.20845 37.8328 1.20845 37.5415V23.8973C1.20845 23.6059 1.45292 23.369 1.75349 23.369H4.52726C4.82782 23.369 5.0723 23.606 5.0723 23.8973V27.0766C5.0723 27.4002 5.34281 27.6624 5.67649 27.6624C6.01016 27.6624 6.28067 27.4002 6.28067 27.0766V25.4233C11.2791 25.4604 12.4029 28.0147 15.8274 28.4843C15.8325 28.4851 15.8377 28.4857 15.8428 28.4863L22.5275 29.2324C23.698 29.3963 24.5987 30.2999 24.7291 31.4377L24.7207 32.5521H18.4867C18.1531 32.5521 17.8825 32.8143 17.8825 33.1379C17.8825 33.4615 18.153 33.7238 18.4867 33.7238H25.3206C25.3969 33.7238 25.485 33.7074 25.5618 33.675C25.5741 33.6697 36.5417 28.9878 36.5545 28.9824C37.3451 28.6417 38.0659 28.5931 38.5547 29.2895C38.9347 29.8306 38.8506 30.5623 38.3635 31.0097Z" fill="black"/>
<path d="M22.1198 26.5799C22.4535 26.5799 22.7241 26.3177 22.7241 25.9941V25.023C24.4204 24.7561 25.4101 23.4249 25.6254 22.183C25.8944 20.6317 25.0563 19.2825 23.4903 18.7459C23.2136 18.6511 22.959 18.5603 22.724 18.4728V14.7374C23.4388 14.8524 23.868 15.211 23.8993 15.2378C24.1447 15.4542 24.5245 15.4382 24.7498 15.2015C24.976 14.9637 24.9606 14.5931 24.7153 14.3737C24.6727 14.3356 23.9326 13.6895 22.724 13.5545V12.7213C22.724 12.3977 22.4535 12.1355 22.1197 12.1355C21.7861 12.1355 21.5155 12.3977 21.5155 12.7213V13.6018C21.3699 13.6288 21.2206 13.6632 21.0673 13.708C20.0423 14.0073 19.2762 14.8594 19.0677 15.9317C18.8786 16.9047 19.1968 17.8405 19.8981 18.3738C20.3007 18.68 20.8076 18.9603 21.5155 19.26V23.8929C20.8168 23.8642 20.3866 23.737 19.6363 23.2611C19.3571 23.084 18.9825 23.1597 18.7999 23.4306C18.6172 23.7013 18.6954 24.0644 18.9747 24.2416C19.9611 24.8672 20.6205 25.0304 21.5155 25.0641V25.9941C21.5155 26.3177 21.7861 26.5799 22.1198 26.5799ZM20.6439 17.4519C20.299 17.1896 20.15 16.6902 20.2553 16.1487C20.3529 15.6465 20.709 15.0363 21.4159 14.8299C21.4495 14.8201 21.4825 14.8117 21.5155 14.8031V17.9675C21.1537 17.7924 20.87 17.6239 20.6439 17.4519ZM23.0876 19.8506C24.5912 20.3658 24.498 21.6176 24.4337 21.9889C24.3004 22.7577 23.7183 23.5785 22.724 23.8255V19.7236C22.8416 19.7654 22.9618 19.8075 23.0876 19.8506Z" fill="black"/>
</svg>
